<?xml version="1.0" encoding="utf-8" ?>
<svg xmlns="http://www.w3.org/2000/svg" xmlns:xlink="http://www.w3.org/1999/xlink" width="321" height="292">
	<defs>
		<clipPath id="clip_0">
			<rect x="-617" y="-406" width="1589" height="1197" clip-rule="evenodd"/>
		</clipPath>
	</defs>
	<g clip-path="url(#clip_0)">
		<path fill="rgb(43,62,81)" stroke="none" transform="translate(100 179)" d="M61.4073 38.2171C61.4073 48.2043 63.6698 55.8866 68.1959 61.2675C72.7215 66.6467 80.453 69.3384 91.3904 69.3384C101.406 69.3384 108.802 66.6344 113.579 61.2242C118.356 55.8161 120.745 48.5619 120.745 39.4645L120.745 0L0 0L0 19.0805L61.4073 19.0805L61.4073 38.2171ZM104.653 36.388C104.653 40.7697 103.627 44.1784 101.573 46.6102C99.5199 49.042 96.0836 50.2579 91.2646 50.2579C86.4456 50.2579 82.9256 49.042 80.7045 46.6102C78.4834 44.1784 77.3728 40.7697 77.3728 36.388L77.3728 19.0805L104.653 19.0805L104.653 36.388Z" fill-rule="evenodd"/>
	</g>
	<defs>
		<clipPath id="clip_1">
			<rect width="320.32587" height="291.9375" clip-rule="evenodd"/>
		</clipPath>
	</defs>
	<g clip-path="url(#clip_1)">
		<path fill="rgb(63,188,167)" stroke="none" d="M0 14.4734C0 6.35828 6.71846 0 14.8965 0L305.333 0C313.517 0 320.326 6.35828 320.326 14.4734L320.326 277.385C320.326 285.497 313.517 291.938 305.333 291.938L14.8965 291.938C6.71846 291.938 0 285.497 0 277.385L0 14.4734ZM44.1348 36.2313C44.1348 32.2274 40.8627 28.9815 36.8264 28.9815C32.7902 28.9815 29.5181 32.2274 29.5181 36.2313C29.5181 40.2353 32.7902 43.4812 36.8264 43.4812C40.8627 43.4812 44.1348 40.2353 44.1348 36.2313ZM66.8294 28.9815C70.8657 28.9815 74.1378 32.2274 74.1378 36.2313C74.1378 40.2353 70.8657 43.4812 66.8294 43.4812C62.7931 43.4812 59.521 40.2353 59.521 36.2313C59.521 32.2274 62.7931 28.9815 66.8294 28.9815ZM89.1265 43.7687L290.323 43.7687L290.323 29.3251L89.1265 29.3251L89.1265 43.7687ZM29.5618 262.612L290.323 262.612L290.323 73.0938L29.5618 73.0938L29.5618 262.612Z" fill-rule="evenodd"/>
	</g>
	<defs>
		<clipPath id="clip_2">
			<rect width="320.32587" height="291.9375" clip-rule="evenodd"/>
		</clipPath>
	</defs>
	<g clip-path="url(#clip_2)">
		<path fill="rgb(43,62,81)" stroke="none" transform="translate(64 91)" d="M61.2233 48.5802L42.8562 30.3536L61.2197 12.1349L48.971 0L30.6061 18.2165L12.2439 0L0 12.1349L18.3662 30.3619L0 48.5802L12.2439 60.7252L30.6061 42.5078L48.9776 60.7252L61.2233 48.5802Z"/>
	</g>
	<defs>
		<clipPath id="clip_3">
			<rect width="320.32587" height="291.9375" clip-rule="evenodd"/>
		</clipPath>
	</defs>
	<g clip-path="url(#clip_3)">
		<path fill="rgb(43,62,81)" stroke="none" transform="translate(196 91)" d="M61.2233 48.5802L42.8562 30.3536L61.2197 12.1349L48.971 0L30.6061 18.2165L12.2439 0L0 12.1349L18.3662 30.3619L0 48.5802L12.2439 60.7252L30.6061 42.5078L48.9776 60.7252L61.2233 48.5802Z"/>
	</g>
</svg>
